<svg width="184" height="35" viewBox="0 0 184 35" fill="none" xmlns="http://www.w3.org/2000/svg">
<path d="M48.9738 21.4446C49.3573 21.4446 49.716 21.3956 50.05 21.2974C50.3838 21.1987 50.6591 21.0803 50.876 20.9407C51.0928 20.8015 51.2848 20.6619 51.4521 20.5223C51.6188 20.3831 51.7357 20.2644 51.8027 20.1657L51.9026 20.0185L53.8803 21.9853C53.8301 22.0511 53.7636 22.1325 53.6802 22.2308C53.5969 22.3291 53.396 22.5056 53.0798 22.7591C52.7624 23.0139 52.4284 23.2389 52.0784 23.4355C51.7279 23.6324 51.2729 23.8089 50.7141 23.9637C50.155 24.1199 49.575 24.1977 48.9742 24.1977C47.1881 24.1977 45.6781 23.604 44.4433 22.4154C43.2083 21.2272 42.5911 19.781 42.5911 18.0762C42.5911 16.3552 43.2083 14.9047 44.4433 13.7245C45.6781 12.5443 47.1885 11.9539 48.9742 11.9539C49.9088 11.9539 50.7803 12.1344 51.5903 12.495C52.3995 12.8556 52.9708 13.2167 53.305 13.5769L53.8305 14.118L51.7527 15.9368C51.6858 15.839 51.5816 15.7242 51.44 15.5931C51.2978 15.4623 50.985 15.2822 50.5009 15.0523C50.0166 14.8233 49.5076 14.7081 48.9738 14.7081C47.989 14.7081 47.1877 15.0359 46.5705 15.6917C45.9529 16.3476 45.6441 17.1419 45.6441 18.0762C45.6441 19.0104 45.9524 19.8059 46.5705 20.461C47.1877 21.1172 47.989 21.4446 48.9738 21.4446Z" fill="#0B3954"/>
<path d="M64.3934 12.2499H67.172V23.9032H64.3934V22.3792C64.3599 22.4282 64.3182 22.4936 64.268 22.5754C64.2182 22.6572 64.0841 22.8049 63.8677 23.0183C63.6504 23.2313 63.4171 23.4158 63.1673 23.5711C62.9165 23.7275 62.5825 23.8702 62.1657 24.0015C61.7484 24.133 61.2979 24.1981 60.8138 24.1981C59.245 24.1981 57.889 23.6168 56.7462 22.4523C55.603 21.2885 55.0315 19.83 55.0315 18.0762C55.0315 16.3223 55.603 14.8638 56.7462 13.7001C57.889 12.5363 59.245 11.9539 60.8138 11.9539C61.5477 11.9539 62.2115 12.1059 62.8042 12.4088C63.3959 12.7124 63.8094 13.0197 64.0435 13.331L64.3938 13.7739V12.2499H64.3934ZM64.1683 19.8219V16.3308C64.1513 16.2818 64.1177 16.2204 64.0679 16.1466C64.018 16.0724 63.9093 15.9461 63.7424 15.7656C63.5753 15.585 63.3923 15.4214 63.1918 15.2733C62.9917 15.1261 62.7281 14.9949 62.403 14.8802C62.0775 14.7659 61.7308 14.7081 61.3644 14.7081C60.3629 14.7081 59.5656 15.0238 58.9735 15.6548C58.3807 16.2854 58.085 17.0925 58.085 18.0762C58.085 19.0598 58.3811 19.8669 58.9735 20.4975C59.5656 21.1285 60.3629 21.4442 61.3644 21.4442C61.9313 21.4442 62.4487 21.3086 62.9161 21.0382C63.383 20.7678 63.7085 20.4935 63.8928 20.2147L64.1683 19.8219Z" fill="#0B3954"/>
<path d="M76.5351 11.9542C77.7363 11.9542 78.7628 12.3522 79.6138 13.1472C80.4651 13.9419 80.8907 15.011 80.8907 16.3556V23.9032H77.8866V17.0925C77.8866 16.2898 77.6698 15.6917 77.2364 15.2978C76.8021 14.9047 76.2349 14.7077 75.5339 14.7077C75.2505 14.7077 74.9747 14.761 74.7081 14.8674C74.4415 14.9749 74.2155 15.0968 74.0326 15.236C73.8488 15.3764 73.6904 15.5188 73.5566 15.666C73.4231 15.8133 73.3317 15.9364 73.2815 16.0351L73.1814 16.2076V23.9028H70.1772V12.2495H72.9813V13.9455C73.0143 13.8962 73.06 13.8268 73.1189 13.7365C73.1773 13.6463 73.3108 13.4866 73.5192 13.2571C73.7274 13.0277 73.9574 12.8271 74.2078 12.6546C74.4583 12.4825 74.7915 12.3229 75.2088 12.1761C75.6251 12.028 76.0674 11.9542 76.5351 11.9542Z" fill="#0B3954"/>
<path d="M95.2341 5.31648V23.9032H92.4556V22.3792C92.4216 22.4282 92.3805 22.4936 92.3306 22.5754C92.2804 22.6572 92.1469 22.8048 91.9304 23.0182C91.7131 23.2313 91.4795 23.4158 91.229 23.571C90.9786 23.7275 90.6446 23.8702 90.2279 24.0015C89.8105 24.133 89.36 24.198 88.8755 24.198C87.3071 24.198 85.9507 23.6168 84.8083 22.4522C83.6647 21.2885 83.0936 19.8299 83.0936 18.0761C83.0936 16.3223 83.6647 14.8638 84.8083 13.7C85.9507 12.5363 87.3071 11.9538 88.8755 11.9538C89.5435 11.9538 90.1565 12.0806 90.7156 12.3349C91.2748 12.5897 91.6711 12.8396 91.9045 13.0847L92.2302 13.4778V5.31567H95.2341V5.31648ZM92.2298 19.8219V16.3307C92.163 16.2164 92.0672 16.0692 91.9421 15.8879C91.8167 15.7082 91.508 15.4663 91.0158 15.1626C90.5232 14.8593 89.9853 14.7077 89.4009 14.7077C88.3997 14.7077 87.6069 15.0234 87.0233 15.6544C86.4384 16.285 86.1467 17.0921 86.1467 18.0757C86.1467 19.0593 86.4384 19.8664 87.0233 20.497C87.6069 21.1281 88.3997 21.4438 89.4009 21.4438C89.768 21.4438 90.1188 21.3864 90.4526 21.2717C90.7858 21.1569 91.0571 21.0217 91.2663 20.8661C91.4748 20.7101 91.6539 20.5548 91.8046 20.3984C91.9545 20.2431 92.0631 20.1079 92.1301 19.9928L92.2298 19.8219Z" fill="#0B3954"/>
<path d="M99.1636 9.86504C98.7798 9.48795 98.5878 9.02906 98.5878 8.48751C98.5878 7.94677 98.7794 7.48785 99.1636 7.11079C99.5471 6.73371 100.015 6.54517 100.566 6.54517C101.116 6.54517 101.584 6.73371 101.968 7.11079C102.352 7.48745 102.544 7.94677 102.544 8.48751C102.544 9.02906 102.352 9.48755 101.968 9.86504C101.584 10.2417 101.116 10.4299 100.566 10.4299C100.015 10.4299 99.5471 10.2421 99.1636 9.86504ZM99.064 23.9032V12.2498H102.068V23.9032H99.064Z" fill="#0B3954"/>
<path d="M116.887 5.31648V23.9032H114.109V22.3792C114.075 22.4282 114.034 22.4936 113.984 22.5754C113.934 22.6572 113.8 22.8048 113.584 23.0182C113.366 23.2313 113.133 23.4158 112.883 23.571C112.632 23.7275 112.298 23.8702 111.882 24.0015C111.464 24.133 111.013 24.198 110.529 24.198C108.96 24.198 107.604 23.6168 106.462 22.4522C105.318 21.2885 104.747 19.8299 104.747 18.0761C104.747 16.3223 105.318 14.8638 106.462 13.7C107.604 12.5363 108.96 11.9538 110.529 11.9538C111.197 11.9538 111.81 12.0806 112.369 12.3349C112.928 12.5897 113.325 12.8396 113.558 13.0847L113.884 13.4778V5.31567H116.887V5.31648ZM113.884 19.8219V16.3307C113.817 16.2164 113.721 16.0692 113.596 15.8879C113.471 15.7082 113.162 15.4663 112.67 15.1626C112.177 14.8593 111.639 14.7077 111.055 14.7077C110.054 14.7077 109.261 15.0234 108.677 15.6544C108.093 16.285 107.8 17.0921 107.8 18.0757C107.8 19.0593 108.092 19.8664 108.677 20.497C109.261 21.1281 110.054 21.4438 111.055 21.4438C111.422 21.4438 111.773 21.3864 112.107 21.2717C112.44 21.1569 112.711 21.0217 112.92 20.8661C113.129 20.7101 113.308 20.5548 113.459 20.3984C113.609 20.2431 113.717 20.1079 113.784 19.9928L113.884 19.8219Z" fill="#0B3954"/>
<path d="M128.803 12.2499H131.581V23.9032H128.803V22.3792C128.769 22.4282 128.728 22.4936 128.677 22.5754C128.627 22.6572 128.494 22.8049 128.277 23.0183C128.06 23.2313 127.826 23.4158 127.576 23.5711C127.325 23.7275 126.992 23.8702 126.575 24.0015C126.158 24.133 125.706 24.1981 125.222 24.1981C123.654 24.1981 122.298 23.6168 121.155 22.4523C120.011 21.2885 119.44 19.83 119.44 18.0762C119.44 16.3223 120.011 14.8638 121.155 13.7001C122.298 12.5363 123.654 11.9539 125.222 11.9539C125.957 11.9539 126.62 12.1059 127.213 12.4088C127.805 12.7124 128.218 13.0197 128.452 13.331L128.803 13.7739V12.2499ZM128.578 19.8219V16.3308C128.561 16.2818 128.527 16.2204 128.478 16.1466C128.427 16.0724 128.318 15.9461 128.152 15.7656C127.985 15.585 127.802 15.4214 127.601 15.2733C127.401 15.1261 127.138 14.9949 126.812 14.8802C126.487 14.7659 126.141 14.7081 125.774 14.7081C124.773 14.7081 123.975 15.0238 123.383 15.6548C122.791 16.2854 122.494 17.0925 122.494 18.0762C122.494 19.0598 122.791 19.8669 123.383 20.4975C123.975 21.1285 124.773 21.4442 125.774 21.4442C126.341 21.4442 126.858 21.3086 127.326 21.0382C127.793 20.7678 128.118 20.4935 128.302 20.2147L128.578 19.8219Z" fill="#0B3954"/>
<path d="M133.634 14.9051V12.2503H135.962V8.7832H138.966V12.2503H142.545V14.9051H138.966V19.6009C138.966 20.83 139.483 21.445 140.518 21.445C140.719 21.445 140.922 21.4125 141.131 21.3467C141.34 21.2813 141.494 21.2155 141.594 21.1497L141.769 21.0266L142.871 23.4362C142.12 23.9449 141.168 24.1984 140.017 24.1984C138.849 24.1984 137.88 23.8176 137.114 23.0555C136.346 22.293 135.962 21.2973 135.962 20.0682V14.9051H133.634Z" fill="#0B3954"/>
<path d="M150.156 11.9542C151.824 11.9542 153.239 12.5287 154.399 13.6755C155.559 14.8232 156.139 16.2734 156.139 18.0276C156.139 18.4704 156.13 18.8387 156.114 19.1339H147.252C147.385 19.7244 147.756 20.2648 148.366 20.7566C148.975 21.2484 149.713 21.4938 150.581 21.4938C151.198 21.4938 151.778 21.396 152.321 21.199C152.863 21.0025 153.251 20.8063 153.485 20.609L153.836 20.3141L155.338 22.5272C155.204 22.658 155.004 22.8144 154.737 22.9942C154.47 23.1747 153.923 23.4206 153.097 23.7319C152.271 24.0431 151.432 24.1987 150.581 24.1987C148.779 24.1987 147.264 23.6091 146.038 22.4289C144.811 21.2488 144.198 19.7978 144.198 18.0769C144.198 16.356 144.765 14.9055 145.9 13.7253C147.034 12.5447 148.453 11.9542 150.156 11.9542ZM147.252 16.9946H153.135C153.101 16.4041 152.822 15.8638 152.296 15.3724C151.77 14.8802 151.057 14.6347 150.156 14.6347C149.271 14.6347 148.582 14.877 148.091 15.3595C147.598 15.8437 147.318 16.3885 147.252 16.9946Z" fill="#0B3954"/>
<path d="M158.717 23.6328C158.333 23.2562 158.141 22.7964 158.141 22.2557C158.141 21.715 158.333 21.2564 158.717 20.8786C159.101 20.5023 159.567 20.3134 160.118 20.3134C160.669 20.3134 161.136 20.5023 161.52 20.8786C161.904 21.256 162.096 21.715 162.096 22.2557C162.096 22.7964 161.904 23.2558 161.52 23.6328C161.136 24.009 160.669 24.198 160.118 24.198C159.567 24.1984 159.101 24.0094 158.717 23.6328Z" fill="#F36B21"/>
<path d="M165.25 23.9032V5.31641H168.254V23.9032H165.25Z" fill="#0B3954"/>
<path d="M170.607 28.6238L172.009 26.3374C172.543 26.8456 173.069 27.0995 173.586 27.0995C174.103 27.0995 174.5 26.9892 174.775 26.7673C175.051 26.546 175.33 26.0829 175.614 25.3781L176.09 24.1736L170.307 12.2499H173.636L177.642 20.781L180.771 12.2499H184L178.243 26.509C177.341 28.7383 175.856 29.8529 173.787 29.8529C173.252 29.8529 172.718 29.7508 172.185 29.5456C171.65 29.3403 171.258 29.1317 171.008 28.9187L170.607 28.6238Z" fill="#0B3954"/>
<path d="M32.4998 29.25C32.4998 32.2416 30.0747 34.6667 27.0832 34.6667C24.0916 34.6667 21.6665 32.2416 21.6665 29.25C21.6665 26.2585 24.0916 23.8334 27.0832 23.8334C30.0747 23.8334 32.4998 26.2585 32.4998 29.25Z" fill="#F36B21"/>
<path d="M17.335 14.5C17.335 14.5 17.335 26 17.335 34.67C7.76114 34.67 0 26.9089 0 17.335C0 7.76114 7.76114 0 17.335 0C17.335 6.5 17.335 14.5 17.335 14.5Z" fill="#0B3954"/>
</svg>
